<?xml version="1.0" standalone="no"?>
<!DOCTYPE svg PUBLIC "-//W3C//DTD SVG 20010904//EN"
 "http://www.w3.org/TR/2001/REC-SVG-20010904/DTD/svg10.dtd">
<svg version="1.0" xmlns="http://www.w3.org/2000/svg"
 width="220.000000pt" height="268.000000pt" viewBox="0 0 220.000000 268.000000"
 preserveAspectRatio="xMidYMid meet">
<metadata>
Created by potrace 1.15, written by Peter Selinger 2001-2017
</metadata>
<g transform="translate(0.000000,268.000000) scale(0.100000,-0.100000)"
fill="#000000" stroke="none">
<path d="M898 2361 c-66 -26 -124 -71 -169 -132 -53 -70 -73 -142 -67 -244 6
-92 30 -148 98 -230 66 -79 99 -153 107 -240 10 -119 60 -175 156 -175 105 0
155 56 167 185 9 94 47 177 119 253 32 33 67 110 80 173 33 162 -66 339 -228
405 -72 30 -193 32 -263 5z m212 -37 c221 -66 307 -310 174 -497 -24 -34 -56
-79 -70 -100 -15 -20 -35 -61 -44 -90 l-17 -52 -126 -3 -126 -3 -12 43 c-15
50 -45 101 -105 178 -82 104 -101 200 -64 310 26 78 57 122 117 164 89 63 176
79 273 50z m29 -793 c33 -21 -4 -31 -115 -31 -88 0 -114 3 -114 13 0 8 3 17 7
20 10 10 206 8 222 -2z m-9 -90 c0 -5 -11 -18 -24 -29 -46 -36 -186 -14 -186
30 0 4 47 8 105 8 58 0 105 -4 105 -9z"/>
<path d="M911 2272 c-130 -50 -205 -218 -155 -349 19 -49 54 -61 54 -19 0 14
-4 28 -10 31 -18 11 -12 142 9 183 42 81 115 125 208 125 66 0 77 5 67 31 -8
22 -114 20 -173 -2z"/>
<path d="M1252 1595 c-7 -14 -12 -47 -12 -73 0 -53 -22 -122 -50 -163 -47 -66
-177 -89 -266 -47 -58 27 -93 79 -103 152 -4 31 -10 58 -12 60 -2 2 -67 -9
-144 -25 -77 -16 -176 -36 -220 -44 -296 -55 -307 -59 -343 -124 -48 -85 -15
-189 74 -230 24 -12 47 -21 50 -21 3 0 20 -6 37 -14 117 -52 523 -200 573
-209 61 -10 103 -4 389 63 22 5 72 16 110 25 76 17 113 25 218 50 37 9 100 23
140 31 202 42 207 44 207 84 0 18 -6 33 -15 36 -13 5 -126 -17 -365 -73 -36
-8 -83 -19 -105 -23 -151 -33 -444 -99 -482 -109 -20 -6 -55 -4 -95 3 -87 17
-617 223 -647 252 -32 30 -32 76 0 110 20 21 31 25 60 21 20 -3 51 -11 70 -20
116 -51 539 -207 563 -207 16 0 45 4 65 10 20 5 90 21 156 35 66 15 170 38
230 51 235 54 273 63 350 80 44 9 109 24 145 33 64 16 65 17 65 50 0 37 -3 40
-85 69 -78 29 -319 118 -425 158 -49 19 -97 34 -106 34 -9 0 -21 -11 -27 -25z"/>
<path d="M1932 1062 c-18 -24 -34 -31 -104 -46 -46 -9 -132 -28 -193 -42 -113
-26 -138 -32 -260 -59 -38 -8 -88 -20 -110 -25 -157 -37 -217 -50 -269 -59
-33 -6 -61 -11 -64 -11 -2 0 -2 -5 0 -11 4 -13 74 -39 107 -39 13 0 40 4 60
10 33 9 108 26 351 81 176 39 215 48 330 74 63 14 133 30 155 35 22 5 55 12
73 15 36 7 54 31 45 63 -5 22 -13 25 -69 37 -27 5 -35 2 -52 -23z"/>
<path d="M251 1001 c-22 -41 -24 -97 -3 -143 21 -47 52 -74 117 -100 22 -9 63
-25 90 -36 28 -11 95 -37 150 -57 55 -20 114 -43 130 -50 17 -7 75 -30 130
-50 108 -39 200 -48 280 -27 40 11 70 18 195 46 36 8 117 27 180 41 147 33
184 42 245 55 28 6 102 23 165 38 l115 27 3 38 c3 35 -4 43 -32 38 -43 -9
-113 -23 -171 -36 -38 -9 -88 -20 -110 -24 -78 -17 -541 -122 -605 -137 -43
-11 -83 -14 -120 -10 -72 9 -648 229 -672 258 -19 22 -24 83 -8 93 20 12 9 31
-23 43 -43 16 -44 15 -56 -7z"/>
<path d="M280 681 c-42 -44 -56 -100 -40 -159 20 -76 36 -85 325 -198 149 -58
303 -116 344 -130 111 -37 141 -34 436 35 22 6 74 17 115 26 41 9 111 25 155
35 44 10 114 26 155 35 41 9 112 25 157 36 45 10 89 19 98 19 22 0 38 46 24
71 -12 23 -9 24 -244 -31 -22 -5 -71 -17 -110 -25 -38 -9 -88 -20 -110 -25
-22 -5 -69 -16 -105 -24 -159 -35 -259 -58 -317 -71 -121 -29 -176 -22 -351
44 -343 130 -468 181 -479 198 -15 20 -17 67 -3 92 5 10 23 24 40 31 26 11 37
10 73 -5 65 -27 66 -27 336 -130 234 -89 257 -96 290 -87 20 6 59 15 86 21 49
10 152 33 230 51 22 5 72 17 110 25 140 32 304 69 459 104 48 11 90 22 92 24
2 2 5 14 6 28 3 22 0 24 -37 22 -22 -2 -78 -12 -125 -24 -47 -11 -123 -29
-170 -39 -47 -10 -119 -26 -160 -35 -41 -10 -91 -21 -110 -25 -19 -4 -117 -26
-218 -49 -181 -41 -183 -42 -255 -28 -39 8 -195 62 -346 121 -150 58 -283 106
-294 106 -11 0 -37 -18 -57 -39z"/>
</g>
</svg>
