<?xml version="1.0" encoding="UTF-8" standalone="no"?>
<!DOCTYPE svg PUBLIC "-//W3C//DTD SVG 1.1//EN" "http://www.w3.org/Graphics/SVG/1.1/DTD/svg11.dtd">
<svg width="100%" height="100%" viewBox="0 0 198 221" version="1.1" xmlns="http://www.w3.org/2000/svg" xmlns:xlink="http://www.w3.org/1999/xlink" xml:space="preserve" xmlns:serif="http://www.serif.com/" style="fill-rule:evenodd;clip-rule:evenodd;stroke-linejoin:round;stroke-miterlimit:2;">
    <g transform="matrix(1,0,0,1,-7.99672,-30.0044)">
        <g transform="matrix(0.1,0,0,-0.1,0,268)">
            <path d="M898,2361C832,2335 774,2290 729,2229C676,2159 656,2087 662,1985C668,1893 692,1837 760,1755C826,1676 859,1602 867,1515C877,1396 927,1340 1023,1340C1128,1340 1178,1396 1190,1525C1199,1619 1237,1702 1309,1778C1341,1811 1376,1888 1389,1951C1422,2113 1323,2290 1161,2356C1089,2386 968,2388 898,2361ZM1110,2324C1331,2258 1417,2014 1284,1827C1260,1793 1228,1748 1214,1727C1199,1707 1179,1666 1170,1637L1153,1585L901,1579L889,1622C874,1672 844,1723 784,1800C702,1904 683,2000 720,2110C746,2188 777,2232 837,2274C926,2337 1013,2353 1110,2324ZM1139,1531C1172,1510 1135,1500 1024,1500C936,1500 910,1503 910,1513C910,1521 913,1530 917,1533C927,1543 1123,1541 1139,1531ZM1130,1441C1130,1436 1119,1423 1106,1412C1060,1376 920,1398 920,1442C920,1446 967,1450 1025,1450C1083,1450 1130,1446 1130,1441Z" style="fill:rgb(0,120,96);fill-rule:nonzero;"/>
        </g>
        <g transform="matrix(0.1,0,0,-0.1,0,268)">
            <path d="M911,2272C781,2222 706,2054 756,1923C775,1874 810,1862 810,1904C810,1918 806,1932 800,1935C782,1946 788,2077 809,2118C851,2199 924,2243 1017,2243C1083,2243 1094,2248 1084,2274C1076,2296 970,2294 911,2272Z" style="fill:rgb(0,120,96);fill-rule:nonzero;"/>
        </g>
        <g transform="matrix(0.1,0,0,-0.1,0,268)">
            <path d="M1252,1595C1245,1581 1240,1548 1240,1522C1240,1469 1218,1400 1190,1359C1143,1293 1013,1270 924,1312C866,1339 831,1391 821,1464C817,1495 811,1522 809,1524C807,1526 742,1515 665,1499C588,1483 489,1463 445,1455C149,1400 138,1396 102,1331C54,1246 87,1142 176,1101C200,1089 223,1080 226,1080C229,1080 246,1074 263,1066C380,1014 786,866 836,857C897,847 939,853 1225,920C1247,925 1297,936 1335,945C1411,962 1448,970 1553,995C1590,1004 1653,1018 1693,1026C1895,1068 1900,1070 1900,1110C1900,1128 1894,1143 1885,1146C1872,1151 1759,1129 1520,1073C1484,1065 1437,1054 1415,1050C1264,1017 971,951 933,941C913,935 878,937 838,944C751,961 221,1167 191,1196C159,1226 159,1272 191,1306C211,1327 222,1331 251,1327C271,1324 302,1316 321,1307C437,1256 860,1100 884,1100C900,1100 929,1104 949,1110C969,1115 1039,1131 1105,1145C1171,1160 1275,1183 1335,1196C1570,1250 1608,1259 1685,1276C1729,1285 1794,1300 1830,1309C1894,1325 1895,1326 1895,1359C1895,1396 1892,1399 1810,1428C1732,1457 1491,1546 1385,1586C1336,1605 1288,1620 1279,1620C1270,1620 1258,1609 1252,1595Z" style="fill:rgb(0,120,96);fill-rule:nonzero;"/>
        </g>
        <g transform="matrix(0.1,0,0,-0.1,0,268)">
            <path d="M1932,1062C1914,1038 1898,1031 1828,1016C1782,1007 1696,988 1635,974C1522,948 1497,942 1375,915C1337,907 1287,895 1265,890C1108,853 1048,840 996,831C963,825 935,820 932,820C930,820 930,815 932,809C936,796 1006,770 1039,770C1052,770 1079,774 1099,780C1132,789 1207,806 1450,861C1626,900 1665,909 1780,935C1843,949 1913,965 1935,970C1957,975 1990,982 2008,985C2044,992 2062,1016 2053,1048C2048,1070 2040,1073 1984,1085C1957,1090 1949,1087 1932,1062Z" style="fill:rgb(0,120,96);fill-rule:nonzero;"/>
        </g>
        <g transform="matrix(0.1,0,0,-0.1,0,268)">
            <path d="M251,1001C229,960 227,904 248,858C269,811 300,784 365,758C387,749 428,733 455,722C483,711 550,685 605,665C660,645 719,622 735,615C752,608 810,585 865,565C973,526 1065,517 1145,538C1185,549 1215,556 1340,584C1376,592 1457,611 1520,625C1667,658 1704,667 1765,680C1793,686 1867,703 1930,718L2045,745L2048,783C2051,818 2044,826 2016,821C1973,812 1903,798 1845,785C1807,776 1757,765 1735,761C1657,744 1194,639 1130,624C1087,613 1047,610 1010,614C938,623 362,843 338,872C319,894 314,955 330,965C350,977 339,996 307,1008C264,1024 263,1023 251,1001Z" style="fill:rgb(0,120,96);fill-rule:nonzero;"/>
        </g>
        <g transform="matrix(0.1,0,0,-0.1,0,268)">
            <path d="M280,681C238,637 224,581 240,522C260,446 276,437 565,324C714,266 868,208 909,194C1020,157 1050,160 1345,229C1367,235 1419,246 1460,255C1501,264 1571,280 1615,290C1659,300 1729,316 1770,325C1811,334 1882,350 1927,361C1972,371 2016,380 2025,380C2047,380 2063,426 2049,451C2037,474 2040,475 1805,420C1783,415 1734,403 1695,395C1657,386 1607,375 1585,370C1563,365 1516,354 1480,346C1321,311 1221,288 1163,275C1042,246 987,253 812,319C469,449 344,500 333,517C318,537 316,584 330,609C335,619 353,633 370,640C396,651 407,650 443,635C508,608 509,608 779,505C1013,416 1036,409 1069,418C1089,424 1128,433 1155,439C1204,449 1307,472 1385,490C1407,495 1457,507 1495,515C1635,547 1799,584 1954,619C2002,630 2044,641 2046,643C2048,645 2051,657 2052,671C2055,693 2052,695 2015,693C1993,691 1937,681 1890,669C1843,658 1767,640 1720,630C1673,620 1601,604 1560,595C1519,585 1469,574 1450,570C1431,566 1333,544 1232,521C1051,480 1049,479 977,493C938,501 782,555 631,614C481,672 348,720 337,720C326,720 300,702 280,681Z" style="fill:rgb(0,120,96);fill-rule:nonzero;"/>
        </g>
    </g>
</svg>
